<?xml version="1.0" encoding="UTF-8"?>
<svg width="24px" height="24px" viewBox="0 0 24 24" version="1.1" xmlns="http://www.w3.org/2000/svg" xmlns:xlink="http://www.w3.org/1999/xlink">
    <title>B9D6F260-B5AE-4E1D-9ADA-4B5F87784456</title>
    <g id="Main-Feature" stroke="none" stroke-width="1" fill="none" fill-rule="evenodd">
        <g id="00.-Bosung" transform="translate(-1266.000000, -812.000000)" fill="#0B0F17">
            <g id="Group-2" transform="translate(0.000000, 784.000000)">
                <g id="Search" transform="translate(135.000000, 16.000000)">
                    <g id="Dropdown-/-Fill---2-txt" transform="translate(921.000000, 0.000000)">
                        <g id="Icon/_Navigation/Arrow-down" transform="translate(210.000000, 12.000000)">
                            <g id="Filter">
                                <path d="M13.9271974,20.722 C13.3183022,21.0817217 12.5647008,21.0931284 11.9451974,20.752 L10.1271974,19.752 C9.48829916,19.4005288 9.09132224,18.7291933 9.09119738,18 L9.09119738,11.709 L3.61419738,6.442 C3.02573321,5.87644181 2.83996445,5.010048 3.14482897,4.25294578 C3.44969349,3.49584356 4.18401962,3 5.00019738,3 L19.0001974,3 C19.8163752,3 20.5507013,3.49584356 20.8555658,4.25294578 C21.1604303,5.010048 20.9746616,5.87644181 20.3861974,6.442 L14.9091974,11.709 L14.9091974,19 C14.9093625,19.7072548 14.5359786,20.3620073 13.9271974,20.722 Z M11.0901974,18 L12.9081974,19 L12.9081974,11.283 C12.9084523,11.0112564 13.019287,10.7513183 13.2151974,10.563 L19.0001974,5 L5.00019738,5 L10.7841974,10.562 C10.9799141,10.7504519 11.0907119,11.0103036 11.0911974,11.282 L11.0911974,18 L11.0901974,18 Z" id="Main"></path>
                            </g>
                        </g>
                    </g>
                </g>
            </g>
        </g>
    </g>
</svg>